<svg width="35" height="35" viewBox="0 0 35 35" fill="none" xmlns="http://www.w3.org/2000/svg">
<g id="alarm_on_FILL0_wght400_GRAD0_opsz48 1">
<path id="Vector" d="M15.9323 23.8438L24.0625 15.7135L22.4948 14.1458L15.9323 20.7083L12.5052 17.2813L10.9375 18.849L15.9323 23.8438ZM17.4635 32.0104C15.6649 32.0104 13.9696 31.6701 12.3776 30.9896C10.7856 30.309 9.40018 29.3793 8.22136 28.2005C7.04254 27.0217 6.10678 25.6363 5.41407 24.0443C4.72136 22.4523 4.37501 20.748 4.37501 18.9316C4.37501 17.1152 4.72136 15.4138 5.41407 13.8274C6.10678 12.2411 7.04254 10.8524 8.22136 9.66146C9.40018 8.47049 10.7856 7.53472 12.3776 6.85417C13.9696 6.17361 15.6649 5.83333 17.4635 5.83333C19.2622 5.83333 20.9575 6.17361 22.5495 6.85417C24.1415 7.53472 25.533 8.47049 26.724 9.66146C27.9149 10.8524 28.8507 12.2411 29.5313 13.8274C30.2118 15.4138 30.5521 17.1152 30.5521 18.9316C30.5521 20.748 30.2118 22.4523 29.5313 24.0443C28.8507 25.6363 27.9149 27.0217 26.724 28.2005C25.533 29.3793 24.1415 30.309 22.5495 30.9896C20.9575 31.6701 19.2622 32.0104 17.4635 32.0104ZM7.80209 3.39062L9.33334 4.92188L3.35417 10.6823L1.82292 9.15104L7.80209 3.39062ZM27.125 3.39062L33.1042 9.15104L31.5729 10.6823L25.5938 4.92188L27.125 3.39062ZM17.4651 29.8229C20.5023 29.8229 23.0781 28.7651 25.1927 26.6495C27.3073 24.5338 28.3646 21.9575 28.3646 18.9203C28.3646 15.8832 27.3068 13.3073 25.1911 11.1927C23.0755 9.07813 20.4991 8.02083 17.462 8.02083C14.4248 8.02083 11.849 9.07865 9.73438 11.1943C7.6198 13.3099 6.5625 15.8863 6.5625 18.9234C6.5625 21.9606 7.62032 24.5365 9.73595 26.651C11.8516 28.7656 14.428 29.8229 17.4651 29.8229Z" fill="#21A049"/>
</g>
</svg>
