<svg width="447" height="406" viewBox="0 0 447 406" fill="none" xmlns="http://www.w3.org/2000/svg">
<path d="M401.036 0L395.846 34.25L428.103 21.6197L401.036 0ZM0.338033 387.702C5.00206 388.757 9.7502 389.782 14.5742 390.771L15.7797 384.893C10.9951 383.912 6.2864 382.896 1.66197 381.85L0.338033 387.702ZM43.4006 396.098C52.86 397.658 62.5273 399.069 72.3492 400.306L73.0987 394.353C63.3539 393.126 53.7622 391.725 44.3767 390.178L43.4006 396.098ZM101.492 403.401C111.155 404.235 120.915 404.885 130.723 405.326L130.992 399.332C121.27 398.895 111.593 398.251 102.008 397.423L101.492 403.401ZM160.012 406C169.793 406.004 179.577 405.779 189.318 405.303L189.025 399.31C179.387 399.782 169.702 400.004 160.014 400L160.012 406ZM218.548 403.077C228.359 402.05 238.079 400.735 247.658 399.108L246.653 393.192C237.208 394.797 227.615 396.095 217.923 397.11L218.548 403.077ZM276.427 393.14C286.05 390.757 295.469 388.007 304.626 384.86L302.677 379.186C293.698 382.271 284.449 384.972 274.985 387.316L276.427 393.14ZM332 373.862C341.013 369.661 349.675 364.987 357.92 359.805L354.727 354.725C346.709 359.764 338.268 364.321 329.465 368.424L332 373.862ZM381.78 342.325C389.286 335.916 396.28 328.938 402.687 321.357L398.105 317.484C391.916 324.807 385.154 331.555 377.884 337.762L381.78 342.325ZM419.808 297.227C424.709 288.909 429.017 280.028 432.675 270.556L427.078 268.395C423.537 277.563 419.371 286.149 414.639 294.182L419.808 297.227ZM441.233 242.188C443.3 232.975 444.833 223.302 445.797 213.151L439.824 212.584C438.883 222.495 437.387 231.919 435.378 240.874L441.233 242.188ZM446.982 183.774C446.88 174.358 446.341 164.584 445.34 154.44L439.369 155.028C440.353 165.008 440.883 174.608 440.983 183.838L446.982 183.774ZM441.37 125.357C439.765 116.055 437.806 106.471 435.477 96.5986L429.637 97.976C431.939 107.736 433.874 117.201 435.458 126.378L441.37 125.357ZM427.966 68.1417C425.317 59.0392 422.377 49.7104 419.135 40.1504L413.453 42.0774C416.668 51.5581 419.582 60.8032 422.204 69.8178L427.966 68.1417Z" fill="#707070"/>
</svg>
