<svg width="100%" height="100%" viewBox="0 0 24 25" fill="none" xmlns="http://www.w3.org/2000/svg">
<g id="cancel_FILL0_wght400_GRAD0_opsz48 1">
<path id="Vector" d="M8.25 7.7L12 11.45L15.75 7.7L16.8 8.75L13.05 12.5L16.8 16.25L15.75 17.3L12 13.55L8.25 17.3L7.2 16.25L10.95 12.5L7.2 8.75L8.25 7.7ZM12 2.5C10.6333 2.5 9.34167 2.7625 8.125 3.2875C6.90833 3.8125 5.84583 4.52917 4.9375 5.4375C4.02917 6.34583 3.3125 7.40833 2.7875 8.625C2.2625 9.84167 2 11.1333 2 12.5C2 13.8833 2.2625 15.1833 2.7875 16.4C3.3125 17.6167 4.02917 18.675 4.9375 19.575C5.84583 20.475 6.90833 21.1875 8.125 21.7125C9.34167 22.2375 10.6333 22.5 12 22.5C13.3833 22.5 14.6833 22.2375 15.9 21.7125C17.1167 21.1875 18.175 20.475 19.075 19.575C19.975 18.675 20.6875 17.6167 21.2125 16.4C21.7375 15.1833 22 13.8833 22 12.5C22 11.1333 21.7375 9.84167 21.2125 8.625C20.6875 7.40833 19.975 6.34583 19.075 5.4375C18.175 4.52917 17.1167 3.8125 15.9 3.2875C14.6833 2.7625 13.3833 2.5 12 2.5ZM12 4C14.3667 4 16.375 4.82917 18.025 6.4875C19.675 8.14583 20.5 10.15 20.5 12.5C20.5 14.8667 19.675 16.875 18.025 18.525C16.375 20.175 14.3667 21 12 21C9.65 21 7.64583 20.175 5.9875 18.525C4.32917 16.875 3.5 14.8667 3.5 12.5C3.5 10.15 4.32917 8.14583 5.9875 6.4875C7.64583 4.82917 9.65 4 12 4Z" fill="#BB0000"/>
</g>
</svg>
