<svg width="20" height="20" viewBox="0 0 20 20" fill="none" xmlns="http://www.w3.org/2000/svg">
    <path d="M0.156424 19.0127L0.156424 11.281L2.24349 11.281L2.24349 15.5026L6.72592 11.0202L8.14892 12.4432L3.66648 16.9256L7.88804 16.9256V19.0127L0.156424 19.0127ZM0.156424 7.53382V0.0393768L7.6983 0.0393765L7.6983 2.12644L3.66648 2.12644L8.14892 6.60888L6.72592 8.03187L2.24349 3.54943L2.24348 7.53382L0.156424 7.53382ZM11.6353 19.0127V16.9256L15.6197 16.9256L11.1609 12.4669L12.5839 11.0439L17.0426 15.5026L17.0426 11.5182H19.1297L19.1297 19.0127L11.6353 19.0127ZM11.1609 6.58516L15.6197 2.12644L11.6353 2.12644L11.6353 0.0393768H19.1297V7.53382L17.0426 7.53382L17.0426 3.54943L12.5839 8.00816L11.1609 6.58516Z" fill="white" fill-opacity="0.7"/>
</svg>
