<svg width="100%" height="100%" viewBox="0 0 58 58" fill="none" xmlns="http://www.w3.org/2000/svg">
    <path d="M29 50.75V46.4604L42.05 33.4104L46.3396 37.7L33.2896 50.75H29ZM7.25 38.0625V34.4375H25.375V38.0625H7.25ZM48.9375 35.1021L44.6479 30.8125L46.4 29.0604C46.7222 28.7382 47.1451 28.5771 47.6688 28.5771C48.1924 28.5771 48.6153 28.7382 48.9375 29.0604L50.6896 30.8125C51.0118 31.1347 51.1729 31.5576 51.1729 32.0812C51.1729 32.6049 51.0118 33.0278 50.6896 33.35L48.9375 35.1021ZM7.25 28.0938V24.4688H35.6458V28.0938H7.25ZM7.25 18.125V14.5H35.6458V18.125H7.25Z" fill="#21A049"/>
</svg>
