<svg viewBox="0 0 218 45" fill="none" xmlns="http://www.w3.org/2000/svg">
<g id="Logotype" clip-path="url(#clip0_133_338)">
<path id="Vector" d="M156.796 9H145V36H151.181V28.3531H156.796C164.323 28.3531 169 24.6232 169 18.6632C169 12.7033 164.323 9 156.796 9ZM156.659 23.8576H151.181V13.4955H156.659C160.622 13.4955 162.8 15.3361 162.8 18.6766C162.8 22.0171 160.62 23.8576 156.659 23.8576Z" fill="#21A049"/>
<path id="Vector_2" d="M133.727 13.4952L140 9H119V36H140V31.5048H124.993V24.5929H137.795V20.0978H124.993V13.4952H133.727Z" fill="#21A049"/>
<path id="Vector_3" d="M103.337 19.5236H96.0161V13.4952H107.701L114 9H90V36H102.561C109.606 36 113.646 32.9068 113.646 27.517C113.646 22.3631 109.985 19.5236 103.337 19.5236ZM102.29 31.5026H96.0161V24.0188H102.29C106.106 24.0188 107.885 25.2717 107.885 27.7618C107.885 30.3054 106.003 31.5026 102.29 31.5026Z" fill="#21A049"/>
<path id="Vector_4" d="M79.883 29.946C78.3227 30.7609 76.5744 31.183 74.7998 31.1733C69.4917 31.1733 65.6388 27.5197 65.6388 22.487C65.6388 17.4543 69.4917 13.8115 74.7998 13.8115C76.7185 13.7846 78.5955 14.3516 80.1552 15.4291L84.3792 12.4281L84.1003 12.1918C81.6262 10.1037 78.3401 9 74.5727 9C70.4858 9 66.7769 10.327 64.1296 12.7404C61.4822 15.1537 60 18.5797 60 22.3526C60 26.1254 61.462 29.6078 64.1161 32.11C66.7701 34.6123 70.4768 36 74.5344 36C78.7787 36 82.4854 34.5732 85 31.9778L81.1876 29.2695L79.883 29.946Z" fill="#21A049"/>
<path id="Vector_5" d="M45.5244 22.4989C45.5248 21.1476 45.403 19.7991 45.1602 18.4693L40.2598 22.0377C40.2598 22.1907 40.2598 22.3459 40.2598 22.4876C40.2651 26.3592 38.9584 30.121 36.548 33.1727C34.1377 36.2243 30.7627 38.3899 26.9616 39.3239C23.1606 40.2578 19.1526 39.9063 15.5773 38.3254C12.002 36.7445 9.06541 34.0254 7.23627 30.6019C5.40712 27.1785 4.79081 23.248 5.48569 19.4378C6.18057 15.6277 8.14658 12.1574 11.07 9.5808C13.9934 7.00422 17.7057 5.46986 21.6144 5.22259C25.5231 4.97533 29.403 6.02941 32.6348 8.2166L37.0618 4.99026C33.0447 1.78586 28.0449 0.0264001 22.883 0.000593156C17.721 -0.0252138 12.7035 1.68417 8.65377 4.84823C4.60403 8.0123 1.76264 12.4431 0.595827 17.4136C-0.570983 22.3841 0.00610391 27.599 2.23239 32.2026C4.45868 36.8062 8.20193 40.525 12.8479 42.7488C17.4939 44.9727 22.7666 45.5694 27.8008 44.4411C32.835 43.3129 37.3318 40.5266 40.5531 36.5395C43.7744 32.5524 45.529 27.6014 45.529 22.4989H45.5244Z" fill="#21A049"/>
<path id="Vector_6" d="M40.7743 8.74304C41.8564 10.1247 42.773 11.6256 43.5056 13.2158L22.7634 28.3261L14.0983 22.9556V16.4962L22.7634 21.8644L40.7743 8.74304Z" fill="#21A049"/>
<path id="Vector_7" d="M184 36L194.404 9H199.739L210.176 36H204.508L195.971 12.1629H198.105L189.535 36H184ZM189.202 30.2143L190.636 25.47H202.64L204.107 30.2143H189.202ZM212.598 36V9H218V36H212.598Z" fill="#21A049"/>
</g>
<defs>
<clipPath id="clip0_133_338">
<rect width="218" height="45" fill="white"/>
</clipPath>
</defs>
</svg>
