<svg width="100%" height="100%" viewBox="0 0 250 250" fill="none" xmlns="http://www.w3.org/2000/svg">
<path d="M170.625 108.438C175.312 108.438 179.297 106.797 182.578 103.516C185.859 100.234 187.5 96.25 187.5 91.5625C187.5 86.875 185.859 82.8906 182.578 79.6094C179.297 76.3281 175.312 74.6875 170.625 74.6875C165.938 74.6875 161.953 76.3281 158.672 79.6094C155.391 82.8906 153.75 86.875 153.75 91.5625C153.75 96.25 155.391 100.234 158.672 103.516C161.953 106.797 165.938 108.438 170.625 108.438ZM79.375 108.438C84.0625 108.438 88.0469 106.797 91.3281 103.516C94.6094 100.234 96.25 96.25 96.25 91.5625C96.25 86.875 94.6094 82.8906 91.3281 79.6094C88.0469 76.3281 84.0625 74.6875 79.375 74.6875C74.6875 74.6875 70.7031 76.3281 67.4219 79.6094C64.1406 82.8906 62.5 86.875 62.5 91.5625C62.5 96.25 64.1406 100.234 67.4219 103.516C70.7031 106.797 74.6875 108.438 79.375 108.438ZM125.054 144.688C111.06 144.688 98.3854 148.594 87.0312 156.406C75.6771 164.219 67.2917 174.583 61.875 187.5H78.4375C83.0208 178.75 89.4972 171.979 97.8666 167.188C106.236 162.396 115.351 160 125.21 160C135.07 160 144.115 162.448 152.344 167.344C160.573 172.24 167.083 178.958 171.875 187.5H188.125C182.917 174.375 174.601 163.958 163.179 156.25C151.757 148.542 139.049 144.688 125.054 144.688ZM125 250C107.708 250 91.4583 246.719 76.25 240.156C61.0417 233.594 47.8125 224.688 36.5625 213.438C25.3125 202.188 16.4062 188.958 9.84375 173.75C3.28125 158.542 0 142.292 0 125C0 107.708 3.28125 91.4583 9.84375 76.25C16.4062 61.0417 25.3125 47.8125 36.5625 36.5625C47.8125 25.3125 61.0417 16.4062 76.25 9.84375C91.4583 3.28125 107.708 0 125 0C142.292 0 158.542 3.28125 173.75 9.84375C188.958 16.4062 202.188 25.3125 213.438 36.5625C224.688 47.8125 233.594 61.0417 240.156 76.25C246.719 91.4583 250 107.708 250 125C250 142.292 246.719 158.542 240.156 173.75C233.594 188.958 224.688 202.188 213.438 213.438C202.188 224.688 188.958 233.594 173.75 240.156C158.542 246.719 142.292 250 125 250ZM125 231.25C154.661 231.25 179.785 220.957 200.371 200.371C220.957 179.785 231.25 154.661 231.25 125C231.25 95.3385 220.957 70.2148 200.371 49.6288C179.785 29.0429 154.661 18.75 125 18.75C95.3385 18.75 70.2148 29.0429 49.6287 49.6288C29.0429 70.2148 18.75 95.3385 18.75 125C18.75 154.661 29.0429 179.785 49.6287 200.371C70.2148 220.957 95.3385 231.25 125 231.25Z" fill="#707070"/>
</svg>
