<svg width="25" height="25" viewBox="0 0 25 25" fill="none" xmlns="http://www.w3.org/2000/svg">
    <path d="M11.5625 9.54861H19.4792V7.46528H11.5625V9.54861ZM11.5625 17.5347H19.4792V15.4514H11.5625V17.5347ZM7.91667 10.3125C8.41319 10.3125 8.83825 10.1357 9.19184 9.78212C9.54543 9.42853 9.72222 9.00347 9.72222 8.50694C9.72222 8.01042 9.54543 7.58536 9.19184 7.23177C8.83825 6.87818 8.41319 6.70139 7.91667 6.70139C7.42014 6.70139 6.99508 6.87818 6.64149 7.23177C6.28791 7.58536 6.11111 8.01042 6.11111 8.50694C6.11111 9.00347 6.28791 9.42853 6.64149 9.78212C6.99508 10.1357 7.42014 10.3125 7.91667 10.3125ZM7.91667 18.2986C8.41319 18.2986 8.83825 18.1218 9.19184 17.7682C9.54543 17.4146 9.72222 16.9896 9.72222 16.4931C9.72222 15.9965 9.54543 15.5715 9.19184 15.2179C8.83825 14.8643 8.41319 14.6875 7.91667 14.6875C7.42014 14.6875 6.99508 14.8643 6.64149 15.2179C6.28791 15.5715 6.11111 15.9965 6.11111 16.4931C6.11111 16.9896 6.28791 17.4146 6.64149 17.7682C6.99508 18.1218 7.42014 18.2986 7.91667 18.2986ZM2.08333 25C1.52778 25 1.04167 24.7917 0.625 24.375C0.208333 23.9583 0 23.4722 0 22.9167V2.08333C0 1.52778 0.208333 1.04167 0.625 0.625C1.04167 0.208333 1.52778 0 2.08333 0H22.9167C23.4722 0 23.9583 0.208333 24.375 0.625C24.7917 1.04167 25 1.52778 25 2.08333V22.9167C25 23.4722 24.7917 23.9583 24.375 24.375C23.9583 24.7917 23.4722 25 22.9167 25H2.08333ZM2.08333 22.9167H22.9167V2.08333H2.08333V22.9167Z" fill="currentColor"/>
</svg>
