<svg width="35" height="35" viewBox="0 0 35 35" fill="none" xmlns="http://www.w3.org/2000/svg">
    <path d="M15.9323 23.8438L24.0625 15.7135L22.4948 14.1458L15.9323 20.7083L12.5052 17.2813L10.9375 18.849L15.9323 23.8438ZM17.4635 32.0104C15.6649 32.0104 13.9696 31.6701 12.3776 30.9896C10.7855 30.309 9.40013 29.3793 8.22131 28.2005C7.04249 27.0217 6.10673 25.6363 5.41402 24.0443C4.72131 22.4523 4.37496 20.748 4.37496 18.9316C4.37496 17.1152 4.72131 15.4138 5.41402 13.8274C6.10673 12.2411 7.04249 10.8524 8.22131 9.66146C9.40013 8.47049 10.7855 7.53472 12.3776 6.85417C13.9696 6.17361 15.6649 5.83333 17.4635 5.83333C19.2621 5.83333 20.9574 6.17361 22.5494 6.85417C24.1415 7.53472 25.5329 8.47049 26.7239 9.66146C27.9149 10.8524 28.8507 12.2411 29.5312 13.8274C30.2118 15.4138 30.552 17.1152 30.552 18.9316C30.552 20.748 30.2118 22.4523 29.5312 24.0443C28.8507 25.6363 27.9149 27.0217 26.7239 28.2005C25.5329 29.3793 24.1415 30.309 22.5494 30.9896C20.9574 31.6701 19.2621 32.0104 17.4635 32.0104ZM7.80204 3.39062L9.33329 4.92188L3.35413 10.6823L1.82288 9.15104L7.80204 3.39062ZM27.125 3.39062L33.1041 9.15104L31.5729 10.6823L25.5937 4.92188L27.125 3.39062ZM17.4651 29.8229C20.5022 29.8229 23.0781 28.7651 25.1927 26.6495C27.3073 24.5338 28.3645 21.9575 28.3645 18.9203C28.3645 15.8832 27.3067 13.3073 25.1911 11.1927C23.0755 9.07813 20.4991 8.02083 17.4619 8.02083C14.4248 8.02083 11.8489 9.07865 9.73433 11.1943C7.61975 13.3099 6.56246 15.8863 6.56246 18.9234C6.56246 21.9606 7.62027 24.5365 9.7359 26.651C11.8515 28.7656 14.4279 29.8229 17.4651 29.8229Z" fill="#21A049"/>
</svg>
